<svg xmlns="http://www.w3.org/2000/svg" xmlns:xlink="http://www.w3.org/1999/xlink"
  version="1.1" x="0px" y="0px" viewBox="0 0 100 125" style="enable-background:new 0 0 100 100;" xml:space="preserve">
  <g><rect x="35.5" y="35.9" width="29" height="6"/><rect x="35.5" y="46.6" width="29" height="6"/><rect x="35.5" y="57.2" width="29" height="6"/>
  <path d="M50,14.5c-19.2,0-34.9,15.6-34.9,34.9c0,4.4,0.8,8.7,2.4,12.7c1.2,3,2.8,5.8,4.8,8.4l-4.6,10.8c-0.4,1-0.3,2.2,0.4,3   c0.6,0.7,1.4,1.1,2.3,1.1c0.2,0,0.3,0,0.5,0l17.7-3.1c3.7,1.3,7.5,1.9,11.3,1.9c19.2,0,34.9-15.6,34.9-34.9   C84.9,30.1,69.2,14.5,50,14.5z M50,78.3c-3.4,0-6.8-0.6-10-1.8c-0.5-0.2-1-0.2-1.6-0.1l-13.1,2.3l3.1-7.4c0.4-1,0.3-2.3-0.5-3.1   c-2.1-2.5-3.8-5.2-4.9-8.2c-1.3-3.3-2-6.9-2-10.5c0-15.9,13-28.9,28.9-28.9s28.9,13,28.9,28.9S65.9,78.3,50,78.3z"/></g><text x="0" y="115" fill="#ffffff" font-size="5px" font-weight="bold" font-family="'Helvetica Neue', Helvetica, Arial-Unicode, Arial, Sans-serif">Created by Agni</text><text x="0" y="120" fill="#ffffff" font-size="5px" font-weight="bold" font-family="'Helvetica Neue', Helvetica, Arial-Unicode, Arial, Sans-serif">from the Noun Project</text></svg>
